# xmcd CD database file
#
# Track frame offsets:
#	150
#	17617
#	29757
#	44810
#	59625
#	80460
#	94202
#	111027
#	124007
#	140190
#
# Disc length: 2094 seconds
#
# Revision: 0
# Processed by: cddbd v1.5.2PL0 Copyright (c) Steve Scherf et al.
# Submitted via: CDex 1.70beta2
#
DISCID=93082c0a
DTITLE=Daniel Glidewell - Laying It On The Line
DYEAR=1900
DGENRE=Country
TTITLE0=From Now On
TTITLE1=Didn't We Mean Anything To You
TTITLE2=I Can't Love You Enough
TTITLE3=Laying It On The Line
TTITLE4=Long Way From Leaving
TTITLE5=Swinging For The Fences
TTITLE6=One Step Ahead Of A Heartache
TTITLE7=I Cross My Heart
TTITLE8=Closest Thing To A Hero
TTITLE9=The Best Mistake
EXTD=
EXTT0=
EXTT1=
EXTT2=
EXTT3=
EXTT4=
EXTT5=
EXTT6=
EXTT7=
EXTT8=
EXTT9=
PLAYORDER=
